<!--<?xml version="1.0" encoding="utf-8"?>-->
<!-- Generator: Adobe Illustrator 21.0.0, SVG Export Plug-In . SVG Version: 6.00 Build 0)  -->
<svg version="1.1" id="Layer_1" xmlns="http://www.w3.org/2000/svg" x="0px"
     y="0px"
     viewBox="0 0 34 33.6" enable-background="new 0 0 34 33.6"
     xml:space="preserve">
<path fill="#B8A9A4" d="M17,0C7.7-0.1,0.1,7.3,0,16.6c-0.1,6.8,3.9,13,10.2,15.6c-0.1-1.3,0-2.6,0.3-3.9c0.3-1.4,2.2-9.2,2.2-9.2
	c-0.4-0.8-0.6-1.7-0.5-2.7c0-2.5,1.5-4.3,3.3-4.3c1.2,0,2.3,1,2.3,2.2c0,0.1,0,0.2,0,0.3c0,1.5-1,3.8-1.5,6
	c-0.3,1.4,0.5,2.8,1.9,3.2c0.3,0.1,0.5,0.1,0.8,0.1c3.2,0,5.4-4.1,5.4-8.9c0-3.7-2.5-6.4-7.1-6.4c-4.4-0.2-8.2,3.2-8.4,7.6
	c0,0.1,0,0.3,0,0.4c-0.1,1.2,0.3,2.4,1.1,3.3c0.3,0.2,0.4,0.6,0.2,0.9c-0.1,0.3-0.3,1.1-0.3,1.3c-0.1,0.3-0.4,0.5-0.7,0.5
	c-0.1,0-0.1,0-0.2-0.1c-2.4-1-3.5-3.5-3.5-6.4c0-4.8,4.1-10.5,12.1-10.5c6.5,0,10.8,4.6,10.8,9.6c0,6.6-3.7,11.5-9.2,11.5
	c-1.6,0-3.2-0.7-4.1-2.1c0,0-1,3.9-1.2,4.6c-0.4,1.3-1,2.5-1.7,3.6c1.6,0.5,3.2,0.7,4.8,0.7c9.3,0.1,16.9-7.3,17.1-16.5
	S26.8,0.1,17.5,0C17.3,0,17.2,0,17,0z"/>
</svg>
