<!--<?xml version="1.0" encoding="utf-8"?>-->
<!-- Generator: Adobe Illustrator 21.0.0, SVG Export Plug-In . SVG Version: 6.00 Build 0)  -->
<svg version="1.1" id="Layer_1" xmlns="http://www.w3.org/2000/svg" x="0px"
     y="0px"
     viewBox="0 0 32.8 26.5" enable-background="new 0 0 32.8 26.5"
     xml:space="preserve">
<path fill="#B8A9A4" d="M32.8,3.2c-1.2,0.5-2.5,0.9-3.9,1.1c1.4-0.8,2.5-2.1,3-3.7c-1.3,0.8-2.8,1.3-4.3,1.6
	c-2.5-2.7-6.8-2.9-9.5-0.3c-1.8,1.6-2.5,4.1-2,6.4C10.7,8,5.7,5.4,2.3,1.2c-1.8,3.1-0.9,7,2.1,8.9c-1.1,0-2.1-0.3-3-0.8v0.1
	c0,3.2,2.3,5.9,5.4,6.6c-1,0.3-2,0.3-3,0.1c0.9,2.7,3.4,4.6,6.3,4.7c-2.4,1.9-5.3,2.9-8.4,2.9c-0.5,0-1.1,0-1.6-0.1
	c3.1,2,6.7,3,10.3,3c12.4,0,19.1-10.2,19.1-19c0-0.3,0-0.6,0-0.9C30.7,5.7,31.9,4.5,32.8,3.2z"/>
</svg>
